* Red.Cliff.aka.Chi.bi.2008.DVDRiP.XviD.OPTIONAL-NORDIC_SUB-Zen_Bud *

Format                           : AVI

File size                        : 1.38 GiB
Duration                         : 2h 21mn
Overall bit rate                 : 1 389 Kbps

Video

Format                           : MPEG-4 Visual
Codec ID/Hint                    : XviD
Duration                         : 2h 21mn
Bit rate                         : 1 248 Kbps
Width                            : 720 pixels
Height                           : 434 pixels
Display aspect ratio             : 2.35:1
Stream size                      : 1.24 GiB (90%)
Writing library                  : XviD 1.1.2 (UTC 2006-11-01)

Audio

Format                           : MPEG Audio
Codec ID/Hint                    : MP3
Duration                         : 2h 21mn
Bit rate                         : 128 Kbps
Channel(s)                       : 2 channels
Sampling rate                    : 48.0 KHz
Stream size                      : 130 MiB (9%)
Writing library                  : LAME3.98
Language                         : Chinese 

Text #1
Language                         : Swedish

Text #2
Language                         : Danish

Text #3
Language                         : Norwegian

Text #4
Language                         : Finnish

 
http://en.wikipedia.org/wiki/Red_Cliff_%28film%29
